<svg width="66" height="66" viewBox="0 0 66 66" fill="none" xmlns="http://www.w3.org/2000/svg">
<path d="M32.5805 1.5C40.6586 8.64691 51.2018 12.368 61.9764 11.875C63.545 17.2113 64.025 22.8084 63.3878 28.3338C62.7506 33.8593 61.0091 39.2002 58.267 44.0393C55.5248 48.8784 51.8379 53.1169 47.4253 56.503C43.0127 59.889 37.9644 62.3535 32.5805 63.75M32.5805 1.5C24.5024 8.64691 13.9592 12.368 3.18469 11.875C1.61602 17.2113 1.13603 22.8084 1.77326 28.3338C2.41049 33.8593 4.15192 39.2002 6.89408 44.0393C9.63624 48.8784 13.3232 53.1169 17.7358 56.503C22.1484 59.889 27.1966 62.3535 32.5805 63.75M32.5805 1.5V63.75" stroke="url(#paint0_linear_304_4291)" stroke-width="3" stroke-linecap="round" stroke-linejoin="round"/>
<defs>
<linearGradient id="paint0_linear_304_4291" x1="32.5805" y1="1.5" x2="32.5805" y2="63.75" gradientUnits="userSpaceOnUse">
<stop stop-color="#E57368"/>
<stop offset="1" stop-color="#F3B44A"/>
</linearGradient>
</defs>
</svg>
